<svg width="3900" height="1040" viewBox="0 0 3900 1040" fill="none" xmlns="http://www.w3.org/2000/svg">
  <defs>
    <marker id="arrow" viewBox="0 0 12 12" refX="10" refY="6" markerWidth="12" markerHeight="12" orient="auto">
      <path d="M1 1L10 6L1 11V1Z" fill="#475569"/>
    </marker>

    <g id="phone-shell">
      <rect x="0" y="0" width="170" height="300" rx="26" fill="#FFFFFF" stroke="#163B7A" stroke-width="4"/>
      <rect x="14" y="30" width="142" height="240" rx="18" fill="#F8FAFC" stroke="#E2E8F0" stroke-width="1.5"/>
      <rect x="60" y="12" width="50" height="6" rx="3" fill="#163B7A"/>
      <circle cx="122" cy="15" r="3" fill="#64748B"/>
      <rect x="60" y="282" width="50" height="6" rx="3" fill="#CBD5E1"/>
    </g>
  </defs>

  <style>
    text { font-family: Arial, Helvetica, sans-serif; fill: #0F172A; }
    .title { font-size: 42px; font-weight: 700; }
    .subtitle { font-size: 18px; font-weight: 500; fill: #475569; }
    .eyebrow { font-size: 20px; font-weight: 700; fill: #1D4ED8; }
    .caption { font-size: 20px; font-weight: 700; fill: #0F172A; }
    .flow-label { font-size: 18px; font-weight: 700; fill: #1D4ED8; }
    .circle-text { font-size: 24px; font-weight: 700; fill: #FFFFFF; }
    .diamond-text { font-size: 21px; font-weight: 700; fill: #FFFFFF; }
    .phone-title { font-size: 18px; font-weight: 700; fill: #0F172A; }
    .phone-title-white { font-size: 18px; font-weight: 700; fill: #FFFFFF; }
    .phone-copy { font-size: 14px; font-weight: 600; fill: #475569; }
    .phone-copy-dark { font-size: 14px; font-weight: 700; fill: #0F172A; }
    .small { font-size: 11px; font-weight: 700; fill: #64748B; letter-spacing: 0.04em; }
    .chip { font-size: 11px; font-weight: 700; fill: #FFFFFF; letter-spacing: 0.03em; }
    .card-title { font-size: 22px; font-weight: 700; fill: #FFFFFF; }
    .card-copy { font-size: 15px; font-weight: 600; fill: #FFFFFF; }
  </style>

  <rect width="3900" height="1040" fill="#F4F7FB"/>
  <rect x="24" y="24" width="3852" height="992" rx="26" fill="#FFFFFF" stroke="#D8E3F5" stroke-width="2"/>

  <text class="eyebrow" x="60" y="82">USER FLOW COM TELAS</text>
  <text class="title" x="60" y="130">Professor - MINHA-AULA</text>
  <text class="subtitle" x="60" y="162">Fluxo completo para criar, vincular e gerenciar aulas.</text>

  <text class="caption" x="275" y="210" text-anchor="middle">Tela Inicial</text>
  <text class="caption" x="535" y="210" text-anchor="middle">Login / Cadastro</text>
  <text class="caption" x="740" y="210" text-anchor="middle">Autenticado?</text>
  <text class="caption" x="945" y="210" text-anchor="middle">Dashboard</text>
  <text class="caption" x="1205" y="210" text-anchor="middle">Gerenciar Aulas</text>
  <text class="caption" x="1465" y="200" text-anchor="middle">
    <tspan x="1465" dy="0">Modal</tspan>
    <tspan x="1465" dy="22">Nova Aula</tspan>
  </text>
  <text class="caption" x="1660" y="200" text-anchor="middle">
    <tspan x="1660" dy="0">Informou</tspan>
    <tspan x="1660" dy="22">matricula?</tspan>
  </text>
  <text class="caption" x="1865" y="200" text-anchor="middle">
    <tspan x="1865" dy="0">Validar</tspan>
    <tspan x="1865" dy="22">Matricula</tspan>
  </text>
  <text class="caption" x="2060" y="200" text-anchor="middle">
    <tspan x="2060" dy="0">Aluno</tspan>
    <tspan x="2060" dy="22">encontrado?</tspan>
  </text>
  <text class="caption" x="2265" y="210" text-anchor="middle">Convite Salvo</text>
  <text class="caption" x="2525" y="200" text-anchor="middle">
    <tspan x="2525" dy="0">Lista</tspan>
    <tspan x="2525" dy="22">Atualizada</tspan>
  </text>
  <text class="caption" x="2720" y="200" text-anchor="middle">
    <tspan x="2720" dy="0">Precisa</tspan>
    <tspan x="2720" dy="22">editar?</tspan>
  </text>
  <text class="caption" x="2925" y="210" text-anchor="middle">Editar Aula</text>
  <text class="caption" x="3185" y="200" text-anchor="middle">
    <tspan x="3185" dy="0">Aula</tspan>
    <tspan x="3185" dy="22">Atualizada</tspan>
  </text>

  <g stroke="#475569" stroke-width="5" stroke-linecap="round" stroke-linejoin="round" marker-end="url(#arrow)">
    <line x1="142" y1="390" x2="190" y2="390"/>
    <line x1="360" y1="390" x2="450" y2="390"/>
    <line x1="620" y1="390" x2="685" y2="390"/>
    <line x1="795" y1="390" x2="860" y2="390"/>
    <line x1="1030" y1="390" x2="1120" y2="390"/>
    <line x1="1290" y1="390" x2="1380" y2="390"/>
    <line x1="1550" y1="390" x2="1605" y2="390"/>
    <line x1="1715" y1="390" x2="1780" y2="390"/>
    <line x1="1950" y1="390" x2="2005" y2="390"/>
    <line x1="2115" y1="390" x2="2180" y2="390"/>
    <line x1="2350" y1="390" x2="2440" y2="390"/>
    <line x1="2610" y1="390" x2="2665" y2="390"/>
    <line x1="2775" y1="390" x2="2840" y2="390"/>
    <line x1="3010" y1="390" x2="3100" y2="390"/>
    <line x1="3270" y1="390" x2="3348" y2="390"/>

    <path d="M740 445V560H535V500"/>
    <path d="M1660 445V610"/>
    <path d="M2060 445V610"/>
    <path d="M1720 665H2525V500"/>
    <path d="M1930 665H1465V500"/>
    <path d="M2720 445V610H3400V442"/>
  </g>

  <text class="flow-label" x="810" y="365">Sim</text>
  <text class="flow-label" x="560" y="575">Nao</text>
  <text class="flow-label" x="1680" y="590">Nao</text>
  <text class="flow-label" x="1732" y="365">Sim</text>
  <text class="flow-label" x="2080" y="590">Nao</text>
  <text class="flow-label" x="2132" y="365">Sim</text>
  <text class="flow-label" x="2790" y="365">Sim</text>
  <text class="flow-label" x="2748" y="603">Nao</text>

  <circle cx="90" cy="390" r="52" fill="#1D4ED8"/>
  <text class="circle-text" x="90" y="398" text-anchor="middle">Inicio</text>

  <g transform="translate(190 240)">
    <use href="#phone-shell"/>
    <g transform="translate(14 30)">
      <rect width="142" height="88" rx="16" fill="#1D4ED8"/>
      <text class="phone-title-white" x="71" y="34" text-anchor="middle">MINHA</text>
      <text class="phone-title-white" x="71" y="58" text-anchor="middle">AULA</text>
      <rect x="10" y="104" width="118" height="12" rx="6" fill="#DCE8FF"/>
      <rect x="10" y="124" width="84" height="10" rx="5" fill="#E6EDFA"/>
      <rect x="10" y="152" width="118" height="38" rx="12" fill="#FFFFFF" stroke="#D7E3F7" stroke-width="2"/>
      <text class="phone-copy-dark" x="22" y="175">Comecar fluxo</text>
      <rect x="10" y="202" width="118" height="34" rx="17" fill="#1D4ED8"/>
      <text class="phone-title-white" x="69" y="224" text-anchor="middle">Entrar</text>
    </g>
  </g>

  <g transform="translate(450 240)">
    <use href="#phone-shell"/>
    <g transform="translate(14 30)">
      <rect width="142" height="42" rx="14" fill="#EEF4FF"/>
      <text class="phone-title" x="14" y="27">Acesso</text>
      <rect x="10" y="54" width="118" height="38" rx="12" fill="#FFFFFF" stroke="#D7E3F7" stroke-width="2"/>
      <text class="small" x="18" y="71">EMAIL</text>
      <rect x="18" y="78" width="58" height="6" rx="3" fill="#CBD5E1"/>
      <rect x="10" y="100" width="118" height="38" rx="12" fill="#FFFFFF" stroke="#D7E3F7" stroke-width="2"/>
      <text class="small" x="18" y="117">SENHA</text>
      <rect x="18" y="124" width="48" height="6" rx="3" fill="#CBD5E1"/>
      <rect x="10" y="154" width="118" height="34" rx="17" fill="#1D4ED8"/>
      <text class="phone-title-white" x="69" y="176" text-anchor="middle">Entrar</text>
      <rect x="10" y="198" width="118" height="34" rx="17" fill="#FFFFFF" stroke="#94A3B8" stroke-width="2"/>
      <text class="phone-copy" x="69" y="219" text-anchor="middle">Criar conta</text>
    </g>
  </g>

  <g transform="translate(740 390)">
    <polygon points="0,-56 56,0 0,56 -56,0" fill="#1D4ED8"/>
    <text class="diamond-text" x="0" y="-6" text-anchor="middle">Auten-</text>
    <text class="diamond-text" x="0" y="18" text-anchor="middle">ticado?</text>
  </g>

  <g transform="translate(860 240)">
    <use href="#phone-shell"/>
    <g transform="translate(14 30)">
      <rect width="142" height="60" rx="16" fill="#1D4ED8"/>
      <text class="phone-title-white" x="14" y="26">Ola, professor</text>
      <text class="phone-copy" x="14" y="44" fill="#DBEAFE">2 aulas hoje</text>
      <rect x="10" y="74" width="54" height="46" rx="12" fill="#FFFFFF" stroke="#D7E3F7" stroke-width="2"/>
      <rect x="78" y="74" width="50" height="46" rx="12" fill="#FFFFFF" stroke="#D7E3F7" stroke-width="2"/>
      <text class="phone-copy-dark" x="37" y="97" text-anchor="middle">12</text>
      <text class="small" x="37" y="112" text-anchor="middle">AULAS</text>
      <text class="phone-copy-dark" x="103" y="97" text-anchor="middle">4</text>
      <text class="small" x="103" y="112" text-anchor="middle">ALUNOS</text>
      <rect x="10" y="134" width="118" height="52" rx="14" fill="#EEF4FF" stroke="#BFDBFE" stroke-width="2"/>
      <text class="phone-copy-dark" x="20" y="158">Gerenciar</text>
      <text class="phone-copy-dark" x="20" y="176">aulas</text>
      <rect x="10" y="198" width="118" height="34" rx="17" fill="#1D4ED8"/>
      <text class="phone-title-white" x="69" y="220" text-anchor="middle">Abrir</text>
    </g>
  </g>

  <g transform="translate(1120 240)">
    <use href="#phone-shell"/>
    <g transform="translate(14 30)">
      <rect width="142" height="42" rx="14" fill="#EEF4FF"/>
      <text class="phone-title" x="14" y="27">Minhas aulas</text>
      <rect x="10" y="54" width="118" height="46" rx="12" fill="#FFFFFF" stroke="#D7E3F7" stroke-width="2"/>
      <rect x="86" y="64" width="32" height="16" rx="8" fill="#16A34A"/>
      <text class="chip" x="102" y="75" text-anchor="middle">open</text>
      <text class="phone-copy-dark" x="20" y="74">Matematica</text>
      <text class="phone-copy" x="20" y="92">Seg 14:00</text>
      <rect x="10" y="108" width="118" height="46" rx="12" fill="#FFFFFF" stroke="#D7E3F7" stroke-width="2"/>
      <rect x="74" y="118" width="44" height="16" rx="8" fill="#6366F1"/>
      <text class="chip" x="96" y="129" text-anchor="middle">pend.</text>
      <text class="phone-copy-dark" x="20" y="128">Fisica</text>
      <text class="phone-copy" x="20" y="146">Ter 10:30</text>
      <rect x="10" y="190" width="118" height="34" rx="17" fill="#1D4ED8"/>
      <text class="phone-title-white" x="69" y="212" text-anchor="middle">Nova aula</text>
    </g>
  </g>

  <g transform="translate(1380 240)">
    <use href="#phone-shell"/>
    <g transform="translate(14 30)">
      <rect width="142" height="42" rx="14" fill="#EEF4FF"/>
      <text class="phone-title" x="14" y="27">Nova aula</text>
      <rect x="10" y="54" width="118" height="34" rx="12" fill="#FFFFFF" stroke="#D7E3F7" stroke-width="2"/>
      <text class="small" x="18" y="71">MATERIA</text>
      <rect x="18" y="78" width="50" height="6" rx="3" fill="#CBD5E1"/>
      <rect x="10" y="96" width="54" height="34" rx="12" fill="#FFFFFF" stroke="#D7E3F7" stroke-width="2"/>
      <rect x="74" y="96" width="54" height="34" rx="12" fill="#FFFFFF" stroke="#D7E3F7" stroke-width="2"/>
      <text class="small" x="18" y="113">DATA</text>
      <text class="small" x="82" y="113">HORARIO</text>
      <rect x="18" y="120" width="24" height="6" rx="3" fill="#CBD5E1"/>
      <rect x="82" y="120" width="20" height="6" rx="3" fill="#CBD5E1"/>
      <rect x="10" y="138" width="118" height="46" rx="12" fill="#FFFFFF" stroke="#D7E3F7" stroke-width="2"/>
      <text class="small" x="18" y="155">MATRICULA OPCIONAL</text>
      <rect x="18" y="162" width="42" height="6" rx="3" fill="#60A5FA"/>
      <text class="phone-copy" x="18" y="176">8 digitos</text>
      <rect x="10" y="194" width="118" height="34" rx="17" fill="#1D4ED8"/>
      <text class="phone-title-white" x="69" y="216" text-anchor="middle">Salvar</text>
    </g>
  </g>

  <g transform="translate(1660 390)">
    <polygon points="0,-56 56,0 0,56 -56,0" fill="#1D4ED8"/>
    <text class="diamond-text" x="0" y="-6" text-anchor="middle">Informou</text>
    <text class="diamond-text" x="0" y="18" text-anchor="middle">matricula?</text>
  </g>

  <g transform="translate(1780 240)">
    <use href="#phone-shell"/>
    <g transform="translate(14 30)">
      <rect width="142" height="42" rx="14" fill="#EEF4FF"/>
      <text class="phone-title" x="14" y="27">Buscar aluno</text>
      <rect x="10" y="54" width="118" height="38" rx="12" fill="#FFFFFF" stroke="#BFDBFE" stroke-width="2"/>
      <text class="small" x="18" y="71">MATRICULA</text>
      <text class="phone-copy-dark" x="18" y="86">12345678</text>
      <rect x="10" y="100" width="118" height="50" rx="12" fill="#FFFFFF" stroke="#D7E3F7" stroke-width="2"/>
      <circle cx="28" cy="124" r="12" fill="#DBEAFE"/>
      <text class="phone-copy-dark" x="48" y="121">Aluno</text>
      <text class="phone-copy" x="48" y="138">resultado da busca</text>
      <rect x="10" y="164" width="118" height="34" rx="17" fill="#1D4ED8"/>
      <text class="phone-title-white" x="69" y="186" text-anchor="middle">Validar</text>
      <rect x="10" y="208" width="118" height="24" rx="12" fill="#F8FAFC" stroke="#D7E3F7" stroke-width="2"/>
      <text class="phone-copy" x="69" y="224" text-anchor="middle">cria convite</text>
    </g>
  </g>

  <g transform="translate(2060 390)">
    <polygon points="0,-56 56,0 0,56 -56,0" fill="#1D4ED8"/>
    <text class="diamond-text" x="0" y="-6" text-anchor="middle">Aluno</text>
    <text class="diamond-text" x="0" y="18" text-anchor="middle">encontrado?</text>
  </g>

  <g transform="translate(2180 240)">
    <use href="#phone-shell"/>
    <g transform="translate(14 30)">
      <rect width="142" height="58" rx="16" fill="#DCFCE7"/>
      <text class="phone-title" x="14" y="28">Convite salvo</text>
      <text class="phone-copy" x="14" y="46">Aluno notificado</text>
      <rect x="10" y="72" width="118" height="46" rx="12" fill="#FFFFFF" stroke="#D7E3F7" stroke-width="2"/>
      <rect x="72" y="82" width="46" height="16" rx="8" fill="#6366F1"/>
      <text class="chip" x="95" y="93" text-anchor="middle">pending</text>
      <text class="phone-copy-dark" x="20" y="93">Status</text>
      <text class="phone-copy" x="20" y="110">aguarda aprovacao</text>
      <rect x="10" y="126" width="118" height="58" rx="12" fill="#EEF4FF" stroke="#BFDBFE" stroke-width="2"/>
      <text class="phone-copy-dark" x="20" y="151">Notificacao enviada</text>
      <text class="phone-copy" x="20" y="169">segue para a lista</text>
      <rect x="10" y="196" width="118" height="34" rx="17" fill="#1D4ED8"/>
      <text class="phone-title-white" x="69" y="218" text-anchor="middle">Concluir</text>
    </g>
  </g>

  <g transform="translate(2440 240)">
    <use href="#phone-shell"/>
    <g transform="translate(14 30)">
      <rect width="142" height="42" rx="14" fill="#EEF4FF"/>
      <text class="phone-title" x="14" y="27">Lista atualizada</text>
      <rect x="10" y="54" width="118" height="46" rx="12" fill="#FFFFFF" stroke="#D7E3F7" stroke-width="2"/>
      <rect x="86" y="64" width="32" height="16" rx="8" fill="#16A34A"/>
      <text class="chip" x="102" y="75" text-anchor="middle">open</text>
      <text class="phone-copy-dark" x="20" y="74">Biologia</text>
      <text class="phone-copy" x="20" y="92">Aguardando aluno</text>
      <rect x="10" y="108" width="118" height="46" rx="12" fill="#FFFFFF" stroke="#D7E3F7" stroke-width="2"/>
      <rect x="72" y="118" width="46" height="16" rx="8" fill="#6366F1"/>
      <text class="chip" x="95" y="129" text-anchor="middle">pending</text>
      <text class="phone-copy-dark" x="20" y="128">Fisica</text>
      <text class="phone-copy" x="20" y="146">Convite enviado</text>
      <rect x="10" y="190" width="118" height="34" rx="17" fill="#1D4ED8"/>
      <text class="phone-title-white" x="69" y="212" text-anchor="middle">Editar</text>
    </g>
  </g>

  <g transform="translate(2720 390)">
    <polygon points="0,-56 56,0 0,56 -56,0" fill="#1D4ED8"/>
    <text class="diamond-text" x="0" y="-6" text-anchor="middle">Precisa</text>
    <text class="diamond-text" x="0" y="18" text-anchor="middle">editar?</text>
  </g>

  <g transform="translate(2840 240)">
    <use href="#phone-shell"/>
    <g transform="translate(14 30)">
      <rect width="142" height="42" rx="14" fill="#EEF4FF"/>
      <text class="phone-title" x="14" y="27">Editar aula</text>
      <rect x="10" y="54" width="118" height="34" rx="12" fill="#FFFFFF" stroke="#D7E3F7" stroke-width="2"/>
      <text class="small" x="18" y="71">DATA / HORARIO</text>
      <rect x="18" y="78" width="44" height="6" rx="3" fill="#CBD5E1"/>
      <rect x="10" y="96" width="118" height="34" rx="12" fill="#FFFFFF" stroke="#D7E3F7" stroke-width="2"/>
      <text class="small" x="18" y="113">STATUS</text>
      <rect x="18" y="120" width="34" height="6" rx="3" fill="#60A5FA"/>
      <rect x="10" y="138" width="118" height="48" rx="12" fill="#FFFFFF" stroke="#D7E3F7" stroke-width="2"/>
      <text class="small" x="18" y="155">PAGAMENTO</text>
      <rect x="18" y="162" width="30" height="16" rx="8" fill="#16A34A"/>
      <text class="chip" x="33" y="173" text-anchor="middle">pago</text>
      <text class="phone-copy" x="56" y="174">ajustar</text>
      <rect x="10" y="194" width="118" height="34" rx="17" fill="#1D4ED8"/>
      <text class="phone-title-white" x="69" y="216" text-anchor="middle">Salvar</text>
    </g>
  </g>

  <g transform="translate(3100 240)">
    <use href="#phone-shell"/>
    <g transform="translate(14 30)">
      <rect width="142" height="58" rx="16" fill="#DCFCE7"/>
      <text class="phone-title" x="14" y="28">Aula pronta</text>
      <text class="phone-copy" x="14" y="46">Atualizacao concluida</text>
      <rect x="10" y="72" width="118" height="46" rx="12" fill="#FFFFFF" stroke="#D7E3F7" stroke-width="2"/>
      <rect x="18" y="82" width="44" height="16" rx="8" fill="#0EA5E9"/>
      <text class="chip" x="40" y="93" text-anchor="middle">confirm</text>
      <rect x="68" y="82" width="30" height="16" rx="8" fill="#16A34A"/>
      <text class="chip" x="83" y="93" text-anchor="middle">pago</text>
      <text class="phone-copy-dark" x="20" y="111">Dados atualizados</text>
      <rect x="10" y="126" width="118" height="58" rx="12" fill="#EEF4FF" stroke="#BFDBFE" stroke-width="2"/>
      <text class="phone-copy-dark" x="20" y="151">Data, horario e</text>
      <text class="phone-copy-dark" x="20" y="169">status revisados</text>
      <rect x="10" y="196" width="118" height="34" rx="17" fill="#1D4ED8"/>
      <text class="phone-title-white" x="69" y="218" text-anchor="middle">Finalizar</text>
    </g>
  </g>

  <g transform="translate(1460 610)">
    <rect width="260" height="110" rx="22" fill="#16A34A"/>
    <text class="card-title" x="24" y="42">Salvar aula aberta</text>
    <text class="card-copy" x="24" y="68">Sem aluno vinculado</text>
    <rect x="24" y="80" width="54" height="16" rx="8" fill="#166534"/>
    <text class="chip" x="51" y="91" text-anchor="middle">open</text>
  </g>

  <g transform="translate(1930 610)">
    <rect width="280" height="110" rx="22" fill="#E11D48"/>
    <text class="card-title" x="24" y="42">Aluno nao encontrado</text>
    <text class="card-copy" x="24" y="68">Volta para o formulario</text>
    <text class="card-copy" x="24" y="88">para corrigir a matricula</text>
  </g>

  <circle cx="3400" cy="390" r="52" fill="#1D4ED8"/>
  <text class="circle-text" x="3400" y="398" text-anchor="middle">Fim</text>
</svg>
